<svg width="220" height="244" viewBox="0 0 220 244" fill="none" xmlns="http://www.w3.org/2000/svg">
<path d="M33.0519 56.4535C36.4547 46.4506 46.0082 39.7037 56.769 39.7037H165.792C177.443 39.7037 187.519 47.6569 190 58.8105L194.5 90.6553H26L32.25 58.8105L33.0519 56.4535Z" fill="#DE6E4B"/>
<path d="M16.3872 145.526H203.059L218.976 221.98C221.155 232.446 213.859 242.541 203.059 244H16.3872C5.85647 242.537 -1.25979 232.708 0.809431 222.486L16.3872 145.526Z" fill="#DE6E4B"/>
<path d="M67.5 67.1391C70.2614 67.1391 72.5 66.0424 72.5 64.6895C72.5 63.3367 70.2614 62.2399 67.5 62.2399C64.7386 62.2399 62.5 63.3367 62.5 64.6895C62.5 66.0424 64.7386 67.1391 67.5 67.1391Z" fill="#8F3636"/>
<path d="M152.5 67.6291C155.261 67.6291 157.5 66.5323 157.5 65.1795C157.5 63.8266 155.261 62.7299 152.5 62.7299C149.739 62.7299 147.5 63.8266 147.5 65.1795C147.5 66.5323 149.739 67.6291 152.5 67.6291Z" fill="#8F3636"/>
<path d="M121.184 5.16435H99.037C82.279 5.16435 68.9305 13.9958 69.75 30.3951V66.6026L67.5 66.8922L65.25 66.5997V30.3951C65.25 14.2959 78.5695 1.24493 95 1.24493H109.5H125C141.43 1.24493 154.75 14.2959 154.75 30.3951V67.1626L152.5 67.3831L150.248 67.1621V30.3951C151.335 14.0788 137.873 5.16435 121.184 5.16435Z" fill="black" stroke="black"/>
<path d="M6.04 110.31V117.3H13.66V119.55H6.04V126.75H14.56V129H3.31V108.06H14.56V110.31H6.04ZM18.2709 120.72C18.2709 119.04 18.6109 117.57 19.2909 116.31C19.9709 115.03 20.9009 114.04 22.0809 113.34C23.2809 112.64 24.6109 112.29 26.0709 112.29C27.5109 112.29 28.7609 112.6 29.8209 113.22C30.8809 113.84 31.6709 114.62 32.1909 115.56V112.56H34.9509V129H32.1909V125.94C31.6509 126.9 30.8409 127.7 29.7609 128.34C28.7009 128.96 27.4609 129.27 26.0409 129.27C24.5809 129.27 23.2609 128.91 22.0809 128.19C20.9009 127.47 19.9709 126.46 19.2909 125.16C18.6109 123.86 18.2709 122.38 18.2709 120.72ZM32.1909 120.75C32.1909 119.51 31.9409 118.43 31.4409 117.51C30.9409 116.59 30.2609 115.89 29.4009 115.41C28.5609 114.91 27.6309 114.66 26.6109 114.66C25.5909 114.66 24.6609 114.9 23.8209 115.38C22.9809 115.86 22.3109 116.56 21.8109 117.48C21.3109 118.4 21.0609 119.48 21.0609 120.72C21.0609 121.98 21.3109 123.08 21.8109 124.02C22.3109 124.94 22.9809 125.65 23.8209 126.15C24.6609 126.63 25.5909 126.87 26.6109 126.87C27.6309 126.87 28.5609 126.63 29.4009 126.15C30.2609 125.65 30.9409 124.94 31.4409 124.02C31.9409 123.08 32.1909 121.99 32.1909 120.75ZM45.9843 129.27C44.7243 129.27 43.5943 129.06 42.5943 128.64C41.5943 128.2 40.8043 127.6 40.2243 126.84C39.6443 126.06 39.3243 125.17 39.2643 124.17H42.0843C42.1643 124.99 42.5443 125.66 43.2243 126.18C43.9243 126.7 44.8343 126.96 45.9543 126.96C46.9943 126.96 47.8143 126.73 48.4143 126.27C49.0143 125.81 49.3143 125.23 49.3143 124.53C49.3143 123.81 48.9943 123.28 48.3543 122.94C47.7143 122.58 46.7243 122.23 45.3843 121.89C44.1643 121.57 43.1643 121.25 42.3843 120.93C41.6243 120.59 40.9643 120.1 40.4043 119.46C39.8643 118.8 39.5943 117.94 39.5943 116.88C39.5943 116.04 39.8443 115.27 40.3443 114.57C40.8443 113.87 41.5543 113.32 42.4743 112.92C43.3943 112.5 44.4443 112.29 45.6243 112.29C47.4443 112.29 48.9143 112.75 50.0343 113.67C51.1543 114.59 51.7543 115.85 51.8343 117.45H49.1043C49.0443 116.59 48.6943 115.9 48.0543 115.38C47.4343 114.86 46.5943 114.6 45.5343 114.6C44.5543 114.6 43.7743 114.81 43.1943 115.23C42.6143 115.65 42.3243 116.2 42.3243 116.88C42.3243 117.42 42.4943 117.87 42.8343 118.23C43.1943 118.57 43.6343 118.85 44.1543 119.07C44.6943 119.27 45.4343 119.5 46.3743 119.76C47.5543 120.08 48.5143 120.4 49.2543 120.72C49.9943 121.02 50.6243 121.48 51.1443 122.1C51.6843 122.72 51.9643 123.53 51.9843 124.53C51.9843 125.43 51.7343 126.24 51.2343 126.96C50.7343 127.68 50.0243 128.25 49.1043 128.67C48.2043 129.07 47.1643 129.27 45.9843 129.27ZM70.5981 112.56L60.6981 136.74H57.8781L61.1181 128.82L54.4881 112.56H57.5181L62.6781 125.88L67.7781 112.56H70.5981Z" fill="#E56399"/>
<path d="M80.5724 129.21C79.1924 129.21 77.9524 128.97 76.8524 128.49C75.7724 127.99 74.9224 127.31 74.3024 126.45C73.6824 125.57 73.3624 124.56 73.3424 123.42H76.2524C76.3524 124.4 76.7524 125.23 77.4524 125.91C78.1724 126.57 79.2124 126.9 80.5724 126.9C81.8724 126.9 82.8924 126.58 83.6324 125.94C84.3924 125.28 84.7724 124.44 84.7724 123.42C84.7724 122.62 84.5524 121.97 84.1124 121.47C83.6724 120.97 83.1224 120.59 82.4624 120.33C81.8024 120.07 80.9124 119.79 79.7924 119.49C78.4124 119.13 77.3024 118.77 76.4624 118.41C75.6424 118.05 74.9324 117.49 74.3324 116.73C73.7524 115.95 73.4624 114.91 73.4624 113.61C73.4624 112.47 73.7524 111.46 74.3324 110.58C74.9124 109.7 75.7224 109.02 76.7624 108.54C77.8224 108.06 79.0324 107.82 80.3924 107.82C82.3524 107.82 83.9524 108.31 85.1924 109.29C86.4524 110.27 87.1624 111.57 87.3224 113.19H84.3224C84.2224 112.39 83.8024 111.69 83.0624 111.09C82.3224 110.47 81.3424 110.16 80.1224 110.16C78.9824 110.16 78.0524 110.46 77.3324 111.06C76.6124 111.64 76.2524 112.46 76.2524 113.52C76.2524 114.28 76.4624 114.9 76.8824 115.38C77.3224 115.86 77.8524 116.23 78.4724 116.49C79.1124 116.73 80.0024 117.01 81.1424 117.33C82.5224 117.71 83.6324 118.09 84.4724 118.47C85.3124 118.83 86.0324 119.4 86.6324 120.18C87.2324 120.94 87.5324 121.98 87.5324 123.3C87.5324 124.32 87.2624 125.28 86.7224 126.18C86.1824 127.08 85.3824 127.81 84.3224 128.37C83.2624 128.93 82.0124 129.21 80.5724 129.21ZM100.31 112.26C101.55 112.26 102.67 112.53 103.67 113.07C104.67 113.59 105.45 114.38 106.01 115.44C106.59 116.5 106.88 117.79 106.88 119.31V129H104.18V119.7C104.18 118.06 103.77 116.81 102.95 115.95C102.13 115.07 101.01 114.63 99.5898 114.63C98.1498 114.63 96.9998 115.08 96.1398 115.98C95.2998 116.88 94.8798 118.19 94.8798 119.91V129H92.1498V106.8H94.8798V114.9C95.4198 114.06 96.1598 113.41 97.0998 112.95C98.0598 112.49 99.1298 112.26 100.31 112.26ZM119.109 129.27C117.569 129.27 116.169 128.92 114.909 128.22C113.669 127.52 112.689 126.53 111.969 125.25C111.269 123.95 110.919 122.45 110.919 120.75C110.919 119.07 111.279 117.59 111.999 116.31C112.739 115.01 113.739 114.02 114.999 113.34C116.259 112.64 117.669 112.29 119.229 112.29C120.789 112.29 122.199 112.64 123.459 113.34C124.719 114.02 125.709 115 126.429 116.28C127.169 117.56 127.539 119.05 127.539 120.75C127.539 122.45 127.159 123.95 126.399 125.25C125.659 126.53 124.649 127.52 123.369 128.22C122.089 128.92 120.669 129.27 119.109 129.27ZM119.109 126.87C120.089 126.87 121.009 126.64 121.869 126.18C122.729 125.72 123.419 125.03 123.939 124.11C124.479 123.19 124.749 122.07 124.749 120.75C124.749 119.43 124.489 118.31 123.969 117.39C123.449 116.47 122.769 115.79 121.929 115.35C121.089 114.89 120.179 114.66 119.199 114.66C118.199 114.66 117.279 114.89 116.439 115.35C115.619 115.79 114.959 116.47 114.459 117.39C113.959 118.31 113.709 119.43 113.709 120.75C113.709 122.09 113.949 123.22 114.429 124.14C114.929 125.06 115.589 125.75 116.409 126.21C117.229 126.65 118.129 126.87 119.109 126.87ZM134.459 115.59C134.999 114.65 135.799 113.87 136.859 113.25C137.939 112.61 139.189 112.29 140.609 112.29C142.069 112.29 143.389 112.64 144.569 113.34C145.769 114.04 146.709 115.03 147.389 116.31C148.069 117.57 148.409 119.04 148.409 120.72C148.409 122.38 148.069 123.86 147.389 125.16C146.709 126.46 145.769 127.47 144.569 128.19C143.389 128.91 142.069 129.27 140.609 129.27C139.209 129.27 137.969 128.96 136.889 128.34C135.829 127.7 135.019 126.91 134.459 125.97V136.8H131.729V112.56H134.459V115.59ZM145.619 120.72C145.619 119.48 145.369 118.4 144.869 117.48C144.369 116.56 143.689 115.86 142.829 115.38C141.989 114.9 141.059 114.66 140.039 114.66C139.039 114.66 138.109 114.91 137.249 115.41C136.409 115.89 135.729 116.6 135.209 117.54C134.709 118.46 134.459 119.53 134.459 120.75C134.459 121.99 134.709 123.08 135.209 124.02C135.729 124.94 136.409 125.65 137.249 126.15C138.109 126.63 139.039 126.87 140.039 126.87C141.059 126.87 141.989 126.63 142.829 126.15C143.689 125.65 144.369 124.94 144.869 124.02C145.369 123.08 145.619 121.98 145.619 120.72ZM155.332 115.59C155.872 114.65 156.672 113.87 157.732 113.25C158.812 112.61 160.062 112.29 161.482 112.29C162.942 112.29 164.262 112.64 165.442 113.34C166.642 114.04 167.582 115.03 168.262 116.31C168.942 117.57 169.282 119.04 169.282 120.72C169.282 122.38 168.942 123.86 168.262 125.16C167.582 126.46 166.642 127.47 165.442 128.19C164.262 128.91 162.942 129.27 161.482 129.27C160.082 129.27 158.842 128.96 157.762 128.34C156.702 127.7 155.892 126.91 155.332 125.97V136.8H152.602V112.56H155.332V115.59ZM166.492 120.72C166.492 119.48 166.242 118.4 165.742 117.48C165.242 116.56 164.562 115.86 163.702 115.38C162.862 114.9 161.932 114.66 160.912 114.66C159.912 114.66 158.982 114.91 158.122 115.41C157.282 115.89 156.602 116.6 156.082 117.54C155.582 118.46 155.332 119.53 155.332 120.75C155.332 121.99 155.582 123.08 156.082 124.02C156.602 124.94 157.282 125.65 158.122 126.15C158.982 126.63 159.912 126.87 160.912 126.87C161.932 126.87 162.862 126.63 163.702 126.15C164.562 125.65 165.242 124.94 165.742 124.02C166.242 123.08 166.492 121.98 166.492 120.72ZM174.886 109.89C174.366 109.89 173.926 109.71 173.566 109.35C173.206 108.99 173.026 108.55 173.026 108.03C173.026 107.51 173.206 107.07 173.566 106.71C173.926 106.35 174.366 106.17 174.886 106.17C175.386 106.17 175.806 106.35 176.146 106.71C176.506 107.07 176.686 107.51 176.686 108.03C176.686 108.55 176.506 108.99 176.146 109.35C175.806 109.71 175.386 109.89 174.886 109.89ZM176.206 112.56V129H173.476V112.56H176.206ZM189.468 112.26C191.468 112.26 193.088 112.87 194.328 114.09C195.568 115.29 196.188 117.03 196.188 119.31V129H193.488V119.7C193.488 118.06 193.078 116.81 192.258 115.95C191.438 115.07 190.318 114.63 188.898 114.63C187.458 114.63 186.308 115.08 185.448 115.98C184.608 116.88 184.188 118.19 184.188 119.91V129H181.458V112.56H184.188V114.9C184.728 114.06 185.458 113.41 186.378 112.95C187.318 112.49 188.348 112.26 189.468 112.26ZM208.028 112.29C209.448 112.29 210.688 112.6 211.748 113.22C212.828 113.84 213.628 114.62 214.148 115.56V112.56H216.908V129.36C216.908 130.86 216.588 132.19 215.948 133.35C215.308 134.53 214.388 135.45 213.188 136.11C212.008 136.77 210.628 137.1 209.048 137.1C206.888 137.1 205.088 136.59 203.648 135.57C202.208 134.55 201.358 133.16 201.098 131.4H203.798C204.098 132.4 204.718 133.2 205.658 133.8C206.598 134.42 207.728 134.73 209.048 134.73C210.548 134.73 211.768 134.26 212.708 133.32C213.668 132.38 214.148 131.06 214.148 129.36V125.91C213.608 126.87 212.808 127.67 211.748 128.31C210.688 128.95 209.448 129.27 208.028 129.27C206.568 129.27 205.238 128.91 204.038 128.19C202.858 127.47 201.928 126.46 201.248 125.16C200.568 123.86 200.228 122.38 200.228 120.72C200.228 119.04 200.568 117.57 201.248 116.31C201.928 115.03 202.858 114.04 204.038 113.34C205.238 112.64 206.568 112.29 208.028 112.29ZM214.148 120.75C214.148 119.51 213.898 118.43 213.398 117.51C212.898 116.59 212.218 115.89 211.358 115.41C210.518 114.91 209.588 114.66 208.568 114.66C207.548 114.66 206.618 114.9 205.778 115.38C204.938 115.86 204.268 116.56 203.768 117.48C203.268 118.4 203.018 119.48 203.018 120.72C203.018 121.98 203.268 123.08 203.768 124.02C204.268 124.94 204.938 125.65 205.778 126.15C206.618 126.63 207.548 126.87 208.568 126.87C209.588 126.87 210.518 126.63 211.358 126.15C212.218 125.65 212.898 124.94 213.398 124.02C213.898 123.08 214.148 121.99 214.148 120.75Z" fill="#7A6563"/>
</svg>
